<?xml version="1.0" standalone="no"?>
<!DOCTYPE svg PUBLIC "-//W3C//DTD SVG 20010904//EN"
 "http://www.w3.org/TR/2001/REC-SVG-20010904/DTD/svg10.dtd">
<svg version="1.0" xmlns="http://www.w3.org/2000/svg"
 width="1920.000000pt" height="1080.000000pt" viewBox="0 0 1920.000000 1080.000000"
 preserveAspectRatio="xMidYMid meet">

<g transform="translate(0.000000,1080.000000) scale(0.100000,-0.100000)"
fill="#000000" stroke="none">
<path d="M14915 6820 c-413 -45 -862 -409 -1285 -1042 -117 -176 -236 -375
-228 -383 6 -6 61 67 61 82 0 7 2 11 5 8 3 -2 36 25 75 60 229 213 560 334
1017 375 69 6 319 12 555 13 385 3 435 5 478 21 70 26 148 102 183 178 26 56
29 74 29 159 0 90 -2 99 -38 171 -70 142 -220 251 -427 311 -140 41 -310 59
-425 47z m255 -22 c162 -22 336 -89 443 -169 113 -84 187 -219 187 -339 0
-118 -72 -249 -165 -301 -76 -42 -152 -49 -582 -48 -213 0 -440 -4 -503 -10
-455 -43 -756 -152 -997 -360 l-87 -75 28 50 c64 112 262 398 362 524 138 172
348 382 489 488 127 96 311 191 430 223 140 38 222 41 395 17z"/>
<path d="M12448 6281 c-25 -10 -59 -28 -75 -39 -34 -24 -78 -86 -87 -122 -4
-15 2 -9 14 15 43 83 115 135 213 154 34 7 37 9 12 9 -16 1 -51 -7 -77 -17z"/>
<path d="M12603 6290 c139 -36 289 -200 447 -491 49 -89 160 -323 160 -336 0
-4 -25 21 -55 55 -84 93 -206 166 -312 187 -15 3 7 -8 50 -24 101 -37 206
-109 264 -180 25 -31 50 -55 55 -53 5 1 7 -2 4 -7 -3 -5 5 -29 19 -53 74 -129
-32 135 -137 342 -168 329 -361 550 -494 565 l-39 5 38 -10z"/>
<path d="M12272 6070 c0 -14 2 -19 5 -12 2 6 2 18 0 25 -3 6 -5 1 -5 -13z"/>
<path d="M12263 6000 c0 -25 2 -35 4 -22 2 12 2 32 0 45 -2 12 -4 2 -4 -23z"/>
<path d="M12275 5917 c8 -77 81 -178 118 -164 8 4 6 6 -4 6 -34 2 -89 83 -109
158 l-10 38 5 -38z"/>
<path d="M12433 5743 c15 -2 37 -2 50 0 12 2 0 4 -28 4 -27 0 -38 -2 -22 -4z"/>
<path d="M12588 5733 c17 -2 47 -2 65 0 17 2 3 4 -33 4 -36 0 -50 -2 -32 -4z"/>
<path d="M12713 5723 c9 -2 25 -2 35 0 9 3 1 5 -18 5 -19 0 -27 -2 -17 -5z"/>
<path d="M12778 5713 c6 -2 18 -2 25 0 6 3 1 5 -13 5 -14 0 -19 -2 -12 -5z"/>
<path d="M14963 5683 c31 -2 83 -2 115 0 31 2 5 3 -58 3 -63 0 -89 -1 -57 -3z"/>
<path d="M14833 5673 c9 -2 25 -2 35 0 9 3 1 5 -18 5 -19 0 -27 -2 -17 -5z"/>
<path d="M15163 5673 c9 -2 23 -2 30 0 6 3 -1 5 -18 5 -16 0 -22 -2 -12 -5z"/>
<path d="M14773 5663 c9 -2 23 -2 30 0 6 3 -1 5 -18 5 -16 0 -22 -2 -12 -5z"/>
<path d="M15218 5663 c6 -2 18 -2 25 0 6 3 1 5 -13 5 -14 0 -19 -2 -12 -5z"/>
<path d="M14680 5650 c-20 -6 -21 -8 -5 -8 11 0 34 4 50 8 27 7 27 8 5 8 -14
0 -36 -4 -50 -8z"/>
<path d="M15317 5637 c103 -40 171 -87 259 -181 89 -94 146 -189 164 -276 l9
-45 -3 42 c-9 100 -129 278 -247 368 -67 50 -163 100 -214 110 -16 3 -2 -5 32
-18z"/>
<path d="M14595 5630 c-25 -11 1 -11 35 0 20 6 21 8 5 8 -11 0 -29 -3 -40 -8z"/>
<path d="M14525 5610 c-13 -5 -14 -9 -5 -9 8 0 24 4 35 9 13 5 14 9 5 9 -8 0
-24 -4 -35 -9z"/>
<path d="M14345 5551 c-127 -47 -285 -115 -285 -124 0 -2 18 1 40 6 22 6 40
14 40 17 0 3 15 5 33 4 31 -1 31 -1 2 3 -28 4 -27 6 30 30 33 14 114 45 180
69 66 24 113 43 105 43 -8 0 -73 -21 -145 -48z"/>
<path d="M14258 5463 c18 -2 45 -2 60 0 15 2 0 4 -33 4 -33 0 -45 -2 -27 -4z"/>
<path d="M14383 5453 c9 -2 23 -2 30 0 6 3 -1 5 -18 5 -16 0 -22 -2 -12 -5z"/>
<path d="M14438 5443 c6 -2 18 -2 25 0 6 3 1 5 -13 5 -14 0 -19 -2 -12 -5z"/>
<path d="M14488 5433 c7 -3 16 -2 19 1 4 3 -2 6 -13 5 -11 0 -14 -3 -6 -6z"/>
<path d="M14580 5407 c181 -66 334 -154 600 -344 215 -154 285 -194 344 -192
l41 1 -50 8 c-70 10 -104 30 -313 179 -202 144 -322 221 -428 274 -84 42 -188
83 -229 91 -16 4 -1 -4 35 -17z"/>
<path d="M15741 5082 c-4 -67 -66 -151 -136 -183 -22 -10 -33 -19 -24 -19 9 0
39 15 65 33 55 36 109 127 101 168 -4 24 -4 24 -6 1z"/>
<path d="M7488 5083 c18 -2 45 -2 60 0 15 2 0 4 -33 4 -33 0 -45 -2 -27 -4z"/>
<path d="M7389 5060 c-51 -27 -105 -93 -129 -157 -11 -30 -20 -59 -19 -66 0
-7 10 14 22 45 34 88 77 141 138 171 29 15 46 27 38 27 -7 -1 -30 -10 -50 -20z"/>
<path d="M7635 5048 c80 -44 165 -131 203 -208 18 -35 32 -58 32 -51 0 25 -50
109 -94 158 -49 54 -134 116 -176 127 -14 4 2 -8 35 -26z"/>
<path d="M4208 5063 c23 -2 61 -2 85 0 23 2 4 4 -43 4 -47 0 -66 -2 -42 -4z"/>
<path d="M12133 5063 c26 -2 67 -2 90 0 23 2 2 3 -48 3 -49 0 -68 -1 -42 -3z"/>
<path d="M4113 5053 c9 -2 23 -2 30 0 6 3 -1 5 -18 5 -16 0 -22 -2 -12 -5z"/>
<path d="M4353 5053 c9 -2 23 -2 30 0 6 3 -1 5 -18 5 -16 0 -22 -2 -12 -5z"/>
<path d="M10847 5046 c-56 -20 -104 -56 -133 -99 -31 -48 -54 -111 -53 -146 1
-19 4 -14 9 15 12 61 34 106 70 148 50 57 101 78 205 86 l90 7 -75 1 c-41 1
-92 -5 -113 -12z"/>
<path d="M11963 5053 c15 -2 39 -2 55 0 15 2 2 4 -28 4 -30 0 -43 -2 -27 -4z"/>
<path d="M12308 5053 c12 -2 32 -2 45 0 12 2 2 4 -23 4 -25 0 -35 -2 -22 -4z"/>
<path d="M13384 5036 c-175 -57 -312 -183 -411 -381 -32 -63 -93 -228 -92
-248 0 -7 17 35 38 93 65 180 131 290 233 386 90 85 178 132 303 159 38 9 49
14 30 14 -16 0 -62 -10 -101 -23z"/>
<path d="M13623 5053 c9 -2 25 -2 35 0 9 3 1 5 -18 5 -19 0 -27 -2 -17 -5z"/>
<path d="M4068 5043 c7 -3 16 -2 19 1 4 3 -2 6 -13 5 -11 0 -14 -3 -6 -6z"/>
<path d="M4445 5031 c118 -42 188 -94 272 -203 96 -125 96 -197 3 -333 -38
-56 -92 -93 -151 -104 -35 -7 -38 -9 -14 -10 75 -2 152 61 209 172 57 109 47
173 -48 292 -54 67 -94 106 -146 139 -38 24 -143 66 -163 65 -7 0 11 -8 38
-18z"/>
<path d="M5847 5043 c18 -2 50 -2 70 0 21 2 7 4 -32 4 -38 0 -55 -2 -38 -4z"/>
<path d="M11099 5019 c86 -43 130 -104 167 -232 10 -37 13 -42 10 -17 -7 62
-46 147 -86 193 -38 42 -109 87 -140 87 -7 0 15 -14 49 -31z"/>
<path d="M11832 5038 c-71 -16 -42 -19 34 -4 38 8 56 14 39 14 -16 0 -50 -5
-73 -10z"/>
<path d="M12430 5035 c64 -15 107 -58 148 -144 21 -46 24 -63 20 -130 -7 -118
-52 -186 -153 -232 -22 -10 -34 -19 -27 -19 24 0 87 38 118 72 50 52 67 96 72
179 4 67 1 84 -21 132 -46 100 -118 159 -192 156 -11 0 5 -7 35 -14z"/>
<path d="M13745 5026 c126 -41 232 -106 328 -201 84 -82 125 -152 179 -305 26
-74 47 -131 47 -125 1 5 -17 65 -40 132 -58 175 -131 280 -263 379 -90 68
-254 145 -305 144 -9 -1 16 -11 54 -24z"/>
<path d="M3968 5016 c-125 -52 -250 -156 -327 -271 -45 -68 -92 -169 -90 -198
0 -7 10 16 23 49 37 99 74 154 170 250 89 88 169 140 273 179 21 7 31 14 23
14 -8 0 -41 -10 -72 -23z"/>
<path d="M5748 5033 c12 -2 30 -2 40 0 9 3 -1 5 -23 4 -22 0 -30 -2 -17 -4z"/>
<path d="M5978 5033 c6 -2 18 -2 25 0 6 3 1 5 -13 5 -14 0 -19 -2 -12 -5z"/>
<path d="M5688 5023 c6 -2 18 -2 25 0 6 3 1 5 -13 5 -14 0 -19 -2 -12 -5z"/>
<path d="M6045 5016 c35 -15 85 -70 86 -94 0 -10 3 -12 5 -5 13 31 -65 114
-107 113 -8 -1 0 -7 16 -14z"/>
<path d="M6728 5023 c23 -2 61 -2 85 0 23 2 4 4 -43 4 -47 0 -66 -2 -42 -4z"/>
<path d="M5618 5013 c12 -2 30 -2 40 0 9 3 -1 5 -23 4 -22 0 -30 -2 -17 -4z"/>
<path d="M6624 5001 c-45 -28 -101 -97 -118 -149 -24 -69 -19 -74 9 -8 32 78
71 126 125 154 24 12 38 22 30 22 -8 0 -29 -8 -46 -19z"/>
<path d="M6868 5013 c7 -3 16 -2 19 1 4 3 -2 6 -13 5 -11 0 -14 -3 -6 -6z"/>
<path d="M11690 4985 c-36 -19 -80 -51 -97 -71 -38 -43 -74 -131 -72 -177 1
-27 3 -25 9 13 19 112 74 183 185 236 38 19 63 34 55 34 -8 0 -44 -16 -80 -35z"/>
<path d="M5518 5003 c12 -2 32 -2 45 0 12 2 2 4 -23 4 -25 0 -35 -2 -22 -4z"/>
<path d="M6926 4996 c53 -24 126 -126 176 -250 16 -39 26 -57 23 -41 -3 17
-24 68 -46 114 -44 90 -131 191 -165 191 -13 -1 -10 -5 12 -14z"/>
<path d="M5428 4993 c12 -2 30 -2 40 0 9 3 -1 5 -23 4 -22 0 -30 -2 -17 -4z"/>
<path d="M9287 4993 c18 -2 50 -2 70 0 21 2 7 4 -32 4 -38 0 -55 -2 -38 -4z"/>
<path d="M5328 4983 c12 -2 32 -2 45 0 12 2 2 4 -23 4 -25 0 -35 -2 -22 -4z"/>
<path d="M9208 4983 c6 -2 18 -2 25 0 6 3 1 5 -13 5 -14 0 -19 -2 -12 -5z"/>
<path d="M9415 4982 c48 -16 105 -84 105 -126 0 -11 3 -17 6 -13 27 26 -64
148 -108 146 -22 -1 -22 -1 -3 -7z"/>
<path d="M10086 4974 c-60 -22 -142 -89 -191 -155 -43 -58 -86 -153 -84 -187
0 -9 8 8 18 38 26 82 48 118 110 183 68 72 115 103 184 122 28 7 41 14 27 14
-14 0 -43 -7 -64 -15z"/>
<path d="M10253 4983 c9 -2 23 -2 30 0 6 3 -1 5 -18 5 -16 0 -22 -2 -12 -5z"/>
<path d="M5190 4943 c-34 -38 -80 -127 -80 -153 0 -8 11 10 23 41 13 30 36 72
51 92 27 36 38 41 96 50 15 3 8 5 -16 6 -37 1 -46 -4 -74 -36z"/>
<path d="M9121 4959 c-62 -28 -135 -85 -169 -133 -32 -46 -102 -224 -101 -259
0 -12 7 1 14 28 24 85 72 197 99 231 41 52 111 104 173 130 32 13 51 24 43 24
-8 0 -35 -9 -59 -21z"/>
<path d="M10337 4955 c72 -44 163 -182 239 -362 21 -51 40 -90 42 -88 7 7 -84
210 -128 285 -48 83 -148 190 -177 190 -11 0 -3 -9 24 -25z"/>
<path d="M6143 4845 c0 -33 2 -45 4 -27 2 18 2 45 0 60 -2 15 -4 0 -4 -33z"/>
<path d="M9532 4805 c0 -16 2 -22 5 -12 2 9 2 23 0 30 -3 6 -5 -1 -5 -18z"/>
<path d="M7232 4800 c0 -14 2 -19 5 -12 2 6 2 18 0 25 -3 6 -5 1 -5 -13z"/>
<path d="M6122 4747 c-24 -66 -111 -128 -206 -147 -31 -6 -34 -8 -14 -9 44 -2
133 37 172 75 38 37 69 89 64 105 -2 6 -9 -5 -16 -24z"/>
<path d="M6483 4745 c0 -22 2 -30 4 -17 2 12 2 30 0 40 -3 9 -5 -1 -4 -23z"/>
<path d="M5101 4754 c0 -11 3 -14 6 -6 3 7 2 16 -1 19 -3 4 -6 -2 -5 -13z"/>
<path d="M7222 4740 c0 -19 2 -27 5 -17 2 9 2 25 0 35 -3 9 -5 1 -5 -18z"/>
<path d="M7871 4754 c0 -11 3 -14 6 -6 3 7 2 16 -1 19 -3 4 -6 -2 -5 -13z"/>
<path d="M9542 4740 c0 -19 2 -27 5 -17 2 9 2 25 0 35 -3 9 -5 1 -5 -18z"/>
<path d="M5092 4705 c0 -16 2 -22 5 -12 2 9 2 23 0 30 -3 6 -5 -1 -5 -18z"/>
<path d="M7883 4655 c0 -44 2 -61 4 -37 2 23 2 59 0 80 -2 20 -4 1 -4 -43z"/>
<path d="M11282 4700 c0 -19 2 -27 5 -17 2 9 2 25 0 35 -3 9 -5 1 -5 -18z"/>
<path d="M7213 4665 c0 -22 2 -30 4 -17 2 12 2 30 0 40 -3 9 -5 -1 -4 -23z"/>
<path d="M10663 4650 c0 -30 2 -43 4 -27 2 15 2 39 0 55 -2 15 -4 2 -4 -28z"/>
<path d="M5082 4640 c0 -19 2 -27 5 -17 2 9 2 25 0 35 -3 9 -5 1 -5 -18z"/>
<path d="M7131 4654 c0 -11 3 -14 6 -6 3 7 2 16 -1 19 -3 4 -6 -2 -5 -13z"/>
<path d="M11513 4600 c0 -41 2 -58 4 -37 2 20 2 54 0 75 -2 20 -4 3 -4 -38z"/>
<path d="M9554 4530 c0 -74 1 -105 3 -67 2 37 2 97 0 135 -2 37 -3 6 -3 -68z"/>
<path d="M11293 4620 c0 -25 2 -35 4 -22 2 12 2 32 0 45 -2 12 -4 2 -4 -23z"/>
<path d="M6483 4605 c0 -27 2 -38 4 -22 2 15 2 37 0 50 -2 12 -4 0 -4 -28z"/>
<path d="M7142 4610 c0 -14 2 -19 5 -12 2 6 2 18 0 25 -3 6 -5 1 -5 -13z"/>
<path d="M7202 4590 c0 -19 2 -27 5 -17 2 9 2 25 0 35 -3 9 -5 1 -5 -18z"/>
<path d="M9802 4585 c0 -16 2 -22 5 -12 2 9 2 23 0 30 -3 6 -5 -1 -5 -18z"/>
<path d="M4302 4591 c26 -4 50 -9 53 -12 3 -3 12 -33 21 -65 18 -70 54 -111
104 -119 29 -4 31 -4 9 4 -14 4 -35 14 -48 20 -25 14 -60 83 -61 119 0 37 -34
62 -82 61 l-43 -2 47 -6z"/>
<path d="M5073 4565 c0 -22 2 -30 4 -17 2 12 2 30 0 40 -3 9 -5 -1 -4 -23z"/>
<path d="M4214 4555 c-7 -19 -14 -55 -14 -80 0 -85 22 -111 217 -251 268 -194
361 -292 422 -444 12 -30 19 -41 16 -25 -10 52 -55 134 -117 211 -46 59 -95
102 -221 195 -253 186 -266 197 -288 232 -26 42 -23 145 5 176 12 13 14 21 7
21 -7 0 -19 -16 -27 -35z"/>
<path d="M5754 4555 c-3 -20 -4 -39 0 -42 3 -4 6 5 6 18 0 37 12 47 60 52 l45
4 -52 1 -52 2 -7 -35z"/>
<path d="M10673 4545 c0 -22 2 -30 4 -17 2 12 2 30 0 40 -3 9 -5 -1 -4 -23z"/>
<path d="M7153 4530 c0 -25 2 -35 4 -22 2 12 2 32 0 45 -2 12 -4 2 -4 -23z"/>
<path d="M7865 4524 c-13 -89 -60 -173 -228 -407 -87 -120 -107 -154 -105
-180 l1 -32 4 32 c3 20 47 92 128 205 134 186 200 305 211 381 3 26 4 47 1 47
-2 0 -8 -21 -12 -46z"/>
<path d="M11303 4515 c0 -27 2 -38 4 -22 2 15 2 37 0 50 -2 12 -4 0 -4 -28z"/>
<path d="M9792 4520 c0 -19 2 -27 5 -17 2 9 2 25 0 35 -3 9 -5 1 -5 -18z"/>
<path d="M6492 4515 c0 -16 2 -22 5 -12 2 9 2 23 0 30 -3 6 -5 -1 -5 -18z"/>
<path d="M7192 4510 c0 -19 2 -27 5 -17 2 9 2 25 0 35 -3 9 -5 1 -5 -18z"/>
<path d="M8842 4510 c0 -19 2 -27 5 -17 2 9 2 25 0 35 -3 9 -5 1 -5 -18z"/>
<path d="M3542 4505 c0 -16 2 -22 5 -12 2 9 2 23 0 30 -3 6 -5 -1 -5 -18z"/>
<path d="M5063 4475 c0 -22 2 -30 4 -17 2 12 2 30 0 40 -3 9 -5 -1 -4 -23z"/>
<path d="M12320 4491 c-71 -24 -110 -42 -110 -53 0 -5 11 -1 25 8 14 9 58 27
98 39 39 13 65 23 57 24 -8 0 -40 -8 -70 -18z"/>
<path d="M11503 4445 c0 -33 2 -45 4 -27 2 18 2 45 0 60 -2 15 -4 0 -4 -33z"/>
<path d="M10620 4488 c0 -3 7 -25 16 -49 8 -24 35 -111 59 -194 24 -82 44
-141 44 -130 0 34 -26 171 -28 150 -1 -11 -19 33 -41 98 -33 102 -50 145 -50
125z"/>
<path d="M10682 4460 c0 -19 2 -27 5 -17 2 9 2 25 0 35 -3 9 -5 1 -5 -18z"/>
<path d="M5742 4398 c-2 -85 -1 -88 24 -101 24 -13 31 -12 70 10 23 13 62 28
86 32 37 8 39 9 12 10 -17 1 -57 -12 -88 -28 -53 -26 -58 -27 -76 -12 -16 13
-20 32 -23 96 l-3 80 -2 -87z"/>
<path d="M6506 4437 c10 -90 34 -144 105 -243 77 -108 119 -183 119 -213 0
-11 -54 -95 -121 -188 -112 -156 -176 -262 -194 -323 -4 -14 15 18 42 70 26
52 101 168 166 257 64 89 117 171 117 183 0 29 -39 103 -102 190 -85 118 -97
143 -118 232 -13 53 -18 66 -14 35z"/>
<path d="M3533 4400 c0 -41 2 -58 4 -37 2 20 2 54 0 75 -2 20 -4 3 -4 -38z"/>
<path d="M9783 4425 c0 -27 2 -38 4 -22 2 15 2 37 0 50 -2 12 -4 0 -4 -28z"/>
<path d="M8833 4425 c0 -22 2 -30 4 -17 2 12 2 30 0 40 -3 9 -5 -1 -4 -23z"/>
<path d="M11313 4390 c0 -30 2 -43 4 -27 2 15 2 39 0 55 -2 15 -4 2 -4 -28z"/>
<path d="M5053 4375 c0 -27 2 -38 4 -22 2 15 2 37 0 50 -2 12 -4 0 -4 -28z"/>
<path d="M10692 4390 c0 -19 2 -27 5 -17 2 9 2 25 0 35 -3 9 -5 1 -5 -18z"/>
<path d="M12202 4380 c0 -19 2 -27 5 -17 2 9 2 25 0 35 -3 9 -5 1 -5 -18z"/>
<path d="M12871 4374 c0 -11 3 -14 6 -6 3 7 2 16 -1 19 -3 4 -6 -2 -5 -13z"/>
<path d="M14301 4370 c0 -8 4 -24 9 -35 5 -13 9 -14 9 -5 0 8 -4 24 -9 35 -5
13 -9 14 -9 5z"/>
<path d="M8823 4325 c0 -27 2 -38 4 -22 2 15 2 37 0 50 -2 12 -4 0 -4 -28z"/>
<path d="M13588 4353 c-18 -20 -48 -78 -48 -90 1 -4 8 6 17 22 23 44 54 75 74
75 22 0 37 -26 61 -105 14 -46 17 -51 13 -20 -10 66 -46 130 -76 133 -15 2
-31 -4 -41 -15z"/>
<path d="M6028 4343 c6 -2 18 -2 25 0 6 3 1 5 -13 5 -14 0 -19 -2 -12 -5z"/>
<path d="M9773 4280 c0 -41 2 -58 4 -37 2 20 2 54 0 75 -2 20 -4 3 -4 -38z"/>
<path d="M10702 4320 c0 -19 2 -27 5 -17 2 9 2 25 0 35 -3 9 -5 1 -5 -18z"/>
<path d="M11513 4275 c0 -44 2 -61 4 -37 2 23 2 59 0 80 -2 20 -4 1 -4 -43z"/>
<path d="M12861 4334 c0 -11 3 -14 6 -6 3 7 2 16 -1 19 -3 4 -6 -2 -5 -13z"/>
<path d="M6085 4329 c53 -29 96 -64 115 -93 11 -17 20 -26 20 -19 0 21 -61 83
-101 104 -40 20 -69 27 -34 8z"/>
<path d="M12185 4299 c-8 -47 2 -63 36 -56 21 4 21 4 -5 6 -28 1 -28 2 -22 46
9 56 0 60 -9 4z"/>
<path d="M9564 4155 c0 -99 2 -138 3 -87 2 51 2 132 0 180 -1 48 -3 6 -3 -93z"/>
<path d="M3541 4301 c-3 -76 75 -264 152 -368 55 -74 122 -128 274 -223 61
-39 124 -85 139 -103 15 -17 25 -24 21 -14 -4 10 -7 21 -7 23 0 3 -72 52 -161
110 -88 57 -183 128 -211 157 -88 92 -162 236 -191 373 -9 38 -16 58 -16 45z"/>
<path d="M12852 4290 c0 -14 2 -19 5 -12 2 6 2 18 0 25 -3 6 -5 1 -5 -13z"/>
<path d="M14321 4294 c0 -11 3 -14 6 -6 3 7 2 16 -1 19 -3 4 -6 -2 -5 -13z"/>
<path d="M5043 4245 c0 -33 2 -45 4 -27 2 18 2 45 0 60 -2 15 -4 0 -4 -33z"/>
<path d="M11323 4220 c0 -47 2 -66 4 -42 2 23 2 61 0 85 -2 23 -4 4 -4 -43z"/>
<path d="M12345 4280 c-12 -5 3 -6 37 -3 41 4 71 1 101 -11 73 -28 156 -130
177 -219 7 -29 8 -29 9 -6 1 31 -38 112 -79 161 -57 69 -176 107 -245 78z"/>
<path d="M12270 4260 c-20 -6 -21 -8 -5 -8 11 0 29 3 40 8 25 11 -1 11 -35 0z"/>
<path d="M14331 4254 c0 -11 3 -14 6 -6 3 7 2 16 -1 19 -3 4 -6 -2 -5 -13z"/>
<path d="M12842 4240 c0 -14 2 -19 5 -12 2 6 2 18 0 25 -3 6 -5 1 -5 -13z"/>
<path d="M8814 4155 c0 -55 1 -76 3 -47 2 29 2 74 0 100 -2 26 -3 2 -3 -53z"/>
<path d="M14342 4215 c0 -11 4 -31 8 -45 6 -20 8 -21 8 -5 0 11 -4 31 -8 45
-6 20 -8 21 -8 5z"/>
<path d="M13511 4176 c-6 -25 -11 -53 -10 -63 0 -10 7 9 15 41 8 33 13 61 10
63 -2 2 -9 -16 -15 -41z"/>
<path d="M12833 4175 c0 -22 2 -30 4 -17 2 12 2 30 0 40 -3 9 -5 -1 -4 -23z"/>
<path d="M6223 4150 c0 -30 2 -43 4 -27 2 15 2 39 0 55 -2 15 -4 2 -4 -28z"/>
<path d="M13712 4165 c0 -16 2 -22 5 -12 2 9 2 23 0 30 -3 6 -5 -1 -5 -18z"/>
<path d="M11523 4090 c0 -41 2 -58 4 -37 2 20 2 54 0 75 -2 20 -4 3 -4 -38z"/>
<path d="M5034 3915 c0 -132 2 -185 3 -117 2 68 2 176 0 240 -1 64 -3 9 -3
-123z"/>
<path d="M9764 3860 c0 -162 2 -229 3 -147 2 81 2 213 0 295 -1 81 -3 14 -3
-148z"/>
<path d="M14362 4125 c-1 -11 3 -38 7 -60 7 -34 9 -35 9 -10 0 35 -15 101 -16
70z"/>
<path d="M12823 4065 c0 -38 2 -53 4 -32 2 20 2 52 0 70 -2 17 -4 1 -4 -38z"/>
<path d="M13723 4085 c0 -22 2 -30 4 -17 2 12 2 30 0 40 -3 9 -5 -1 -4 -23z"/>
<path d="M6211 4077 c-2 -35 -50 -114 -94 -154 -50 -46 -75 -61 -132 -79 -23
-7 -31 -13 -19 -13 33 -1 122 48 168 94 47 47 90 127 83 154 -4 14 -5 14 -6
-2z"/>
<path d="M13493 4055 c0 -22 2 -30 4 -17 2 12 2 30 0 40 -3 9 -5 -1 -4 -23z"/>
<path d="M11334 3935 c0 -77 2 -107 3 -67 2 40 2 103 0 140 -2 37 -3 4 -3 -73z"/>
<path d="M13734 3920 c0 -58 1 -81 3 -52 2 28 2 76 0 105 -2 28 -3 5 -3 -53z"/>
<path d="M14384 3890 c0 -69 1 -97 3 -62 2 34 2 90 0 125 -2 34 -3 6 -3 -63z"/>
<path d="M12661 3974 c-2 -38 -79 -179 -117 -216 -22 -20 -59 -46 -84 -57 -25
-11 -39 -21 -32 -21 26 0 110 50 137 82 38 45 108 192 102 215 -4 16 -5 15 -6
-3z"/>
<path d="M11533 3910 c0 -41 2 -58 4 -37 2 20 2 54 0 75 -2 20 -4 3 -4 -38z"/>
<path d="M13483 3930 c0 -30 2 -43 4 -27 2 15 2 39 0 55 -2 15 -4 2 -4 -28z"/>
<path d="M9553 3840 c0 -41 2 -58 4 -37 2 20 2 54 0 75 -2 20 -4 3 -4 -38z"/>
<path d="M12823 3855 c0 -33 2 -45 4 -27 2 18 2 45 0 60 -2 15 -4 0 -4 -33z"/>
<path d="M7541 3890 c-1 -33 50 -119 117 -200 69 -82 126 -173 142 -229 5 -17
9 -20 9 -8 2 31 -46 119 -104 192 -112 142 -125 161 -144 210 -11 28 -20 43
-20 35z"/>
<path d="M8814 3790 c0 -52 1 -74 3 -47 2 26 2 68 0 95 -2 26 -3 4 -3 -48z"/>
<path d="M10381 3850 c0 -30 27 -144 28 -120 1 20 3 22 12 10 8 -11 9 -9 3 10
-12 44 -43 116 -43 100z"/>
<path d="M13491 3824 c-3 -73 58 -194 99 -194 6 0 -5 14 -25 31 -34 30 -58 87
-68 164 l-4 30 -2 -31z"/>
<path d="M5828 3833 c12 -2 32 -2 45 0 12 2 2 4 -23 4 -25 0 -35 -2 -22 -4z"/>
<path d="M11543 3725 c0 -44 2 -61 4 -37 2 23 2 59 0 80 -2 20 -4 1 -4 -43z"/>
<path d="M5803 3755 c0 -22 2 -30 4 -17 2 12 2 30 0 40 -3 9 -5 -1 -4 -23z"/>
<path d="M13717 3747 c-10 -72 -30 -103 -74 -116 l-38 -11 35 5 c19 3 43 14
52 26 21 25 41 92 36 122 -2 12 -7 1 -11 -26z"/>
<path d="M12832 3750 c0 -19 2 -27 5 -17 2 9 2 25 0 35 -3 9 -5 1 -5 -18z"/>
<path d="M14372 3720 c0 -19 2 -27 5 -17 2 9 2 25 0 35 -3 9 -5 1 -5 -18z"/>
<path d="M9543 3690 c0 -30 2 -43 4 -27 2 15 2 39 0 55 -2 15 -4 2 -4 -28z"/>
<path d="M11323 3670 c0 -36 2 -50 4 -32 2 17 2 47 0 65 -2 17 -4 3 -4 -33z"/>
<path d="M4862 3695 c0 -16 2 -22 5 -12 2 9 2 23 0 30 -3 6 -5 -1 -5 -18z"/>
<path d="M10435 3700 c12 -41 124 -317 166 -406 71 -156 156 -284 188 -284 7
0 -3 13 -21 29 -65 57 -160 243 -275 536 -53 133 -74 180 -58 125z"/>
<path d="M5791 3668 c-1 -39 4 -53 27 -77 22 -23 32 -27 52 -21 24 8 24 8 -6
9 -41 1 -57 22 -65 85 l-6 51 -2 -47z"/>
<path d="M12841 3700 c-2 -32 42 -168 79 -248 72 -154 176 -278 302 -359 64
-41 184 -94 211 -92 6 0 -11 9 -40 19 -255 90 -447 311 -527 605 -13 50 -25
83 -25 75z"/>
<path d="M10412 3670 c0 -19 2 -27 5 -17 2 9 2 25 0 35 -3 9 -5 1 -5 -18z"/>
<path d="M12313 3673 c15 -2 39 -2 55 0 15 2 2 4 -28 4 -30 0 -43 -2 -27 -4z"/>
<path d="M14356 3639 c-4 -23 -5 -44 -2 -46 2 -2 7 14 11 37 4 23 5 43 2 46
-2 3 -7 -14 -11 -37z"/>
<path d="M8823 3620 c0 -30 2 -43 4 -27 2 15 2 39 0 55 -2 15 -4 2 -4 -28z"/>
<path d="M12196 3662 c-2 -4 13 -6 35 -4 21 2 39 6 39 8 0 7 -69 4 -74 -4z"/>
<path d="M4873 3575 c0 -38 2 -53 4 -32 2 20 2 52 0 70 -2 17 -4 1 -4 -38z"/>
<path d="M5043 3590 c0 -30 2 -43 4 -27 2 15 2 39 0 55 -2 15 -4 2 -4 -28z"/>
<path d="M9533 3580 c0 -25 2 -35 4 -22 2 12 2 32 0 45 -2 12 -4 2 -4 -23z"/>
<path d="M10423 3565 c0 -33 2 -45 4 -27 2 18 2 45 0 60 -2 15 -4 0 -4 -33z"/>
<path d="M11553 3550 c0 -36 2 -50 4 -32 2 17 2 47 0 65 -2 17 -4 3 -4 -33z"/>
<path d="M3624 3581 c-41 -25 -73 -71 -79 -113 l-5 -33 11 36 c15 51 57 98
104 114 22 8 31 14 20 15 -11 0 -34 -9 -51 -19z"/>
<path d="M3790 3541 c52 -27 106 -52 120 -55 14 -4 -26 18 -89 48 -62 31 -116
56 -120 55 -3 0 37 -22 89 -48z"/>
<path d="M5928 3583 c12 -2 30 -2 40 0 9 3 -1 5 -23 4 -22 0 -30 -2 -17 -4z"/>
<path d="M11313 3555 c0 -22 2 -30 4 -17 2 12 2 30 0 40 -3 9 -5 -1 -4 -23z"/>
<path d="M6015 3569 c41 -16 92 -55 107 -82 6 -12 15 -51 18 -87 l7 -65 2 54
c2 94 -53 170 -134 185 l-30 6 30 -11z"/>
<path d="M12193 3530 c0 -30 2 -43 4 -27 2 15 2 39 0 55 -2 15 -4 2 -4 -28z"/>
<path d="M14332 3528 c-7 -28 -11 -53 -8 -55 2 -2 9 19 16 47 7 28 10 53 8 55
-3 3 -10 -18 -16 -47z"/>
<path d="M4120 3548 c0 -25 -45 -58 -91 -67 -33 -7 -37 -9 -16 -10 16 -1 44 6
62 14 32 16 64 59 52 72 -4 3 -7 0 -7 -9z"/>
<path d="M8833 3510 c0 -25 2 -35 4 -22 2 12 2 32 0 45 -2 12 -4 2 -4 -23z"/>
<path d="M9773 3485 c0 -27 2 -38 4 -22 2 15 2 37 0 50 -2 12 -4 0 -4 -28z"/>
<path d="M5053 3480 c0 -25 2 -35 4 -22 2 12 2 32 0 45 -2 12 -4 2 -4 -23z"/>
<path d="M9522 3490 c0 -19 2 -27 5 -17 2 9 2 25 0 35 -3 9 -5 1 -5 -18z"/>
<path d="M4873 3460 c0 -25 2 -35 4 -22 2 12 2 32 0 45 -2 12 -4 2 -4 -23z"/>
<path d="M11302 3475 c0 -16 2 -22 5 -12 2 9 2 23 0 30 -3 6 -5 -1 -5 -18z"/>
<path d="M3948 3473 c7 -3 16 -2 19 1 4 3 -2 6 -13 5 -11 0 -14 -3 -6 -6z"/>
<path d="M11562 3440 c0 -19 2 -27 5 -17 2 9 2 25 0 35 -3 9 -5 1 -5 -18z"/>
<path d="M12203 3415 c0 -27 2 -38 4 -22 2 15 2 37 0 50 -2 12 -4 0 -4 -28z"/>
<path d="M14311 3441 c-2 -38 -66 -160 -116 -224 -57 -72 -158 -148 -250 -187
-38 -16 -63 -30 -55 -30 8 0 53 19 100 42 120 59 229 169 289 290 26 53 41 96
38 110 l-4 23 -2 -24z"/>
<path d="M8843 3415 c0 -22 2 -30 4 -17 2 12 2 30 0 40 -3 9 -5 -1 -4 -23z"/>
<path d="M6396 3418 c-3 -13 -5 -32 -5 -43 1 -11 5 -2 10 19 10 42 6 62 -5 24z"/>
<path d="M9512 3415 c0 -16 2 -22 5 -12 2 9 2 23 0 30 -3 6 -5 -1 -5 -18z"/>
<path d="M11286 3399 c-4 -23 -5 -44 -2 -46 2 -2 7 14 11 37 4 23 5 43 2 46
-2 3 -7 -14 -11 -37z"/>
<path d="M5062 3405 c0 -16 2 -22 5 -12 2 9 2 23 0 30 -3 6 -5 -1 -5 -18z"/>
<path d="M7813 3395 c0 -22 2 -30 4 -17 2 12 2 30 0 40 -3 9 -5 -1 -4 -23z"/>
<path d="M3542 3390 c0 -19 2 -27 5 -17 2 9 2 25 0 35 -3 9 -5 1 -5 -18z"/>
<path d="M9782 3390 c0 -19 2 -27 5 -17 2 9 2 25 0 35 -3 9 -5 1 -5 -18z"/>
<path d="M4861 3395 c-2 -34 -66 -157 -106 -203 -85 -98 -266 -207 -420 -252
-42 -12 -54 -18 -30 -14 163 24 415 185 500 319 38 60 69 138 62 157 -3 8 -6
5 -6 -7z"/>
<path d="M10423 3350 c0 -30 2 -43 4 -27 2 15 2 39 0 55 -2 15 -4 2 -4 -28z"/>
<path d="M11572 3380 c0 -14 2 -19 5 -12 2 6 2 18 0 25 -3 6 -5 1 -5 -13z"/>
<path d="M7071 3328 c-17 -29 -44 -94 -61 -143 -39 -117 -66 -156 -132 -189
-28 -14 -46 -26 -40 -26 21 0 86 37 108 62 28 30 46 68 74 153 40 122 92 209
104 174 3 -8 7 -27 9 -44 3 -16 4 -10 3 15 -2 66 -27 66 -65 -2z"/>
<path d="M9502 3350 c0 -19 2 -27 5 -17 2 9 2 25 0 35 -3 9 -5 1 -5 -18z"/>
<path d="M5072 3350 c0 -14 4 -36 8 -50 6 -20 8 -21 8 -5 0 11 -4 34 -8 50 -7
27 -8 27 -8 5z"/>
<path d="M8853 3335 c0 -22 2 -30 4 -17 2 12 2 30 0 40 -3 9 -5 -1 -4 -23z"/>
<path d="M3552 3325 c0 -16 2 -22 5 -12 2 9 2 23 0 30 -3 6 -5 -1 -5 -18z"/>
<path d="M6383 3295 c0 -33 2 -45 4 -27 2 18 2 45 0 60 -2 15 -4 0 -4 -33z"/>
<path d="M9792 3330 c0 -14 2 -19 5 -12 2 6 2 18 0 25 -3 6 -5 1 -5 -13z"/>
<path d="M11586 3320 c18 -106 131 -290 178 -290 3 0 -11 16 -33 35 -42 38
-104 148 -132 235 -12 34 -16 42 -13 20z"/>
<path d="M12214 3260 c0 -52 1 -74 3 -47 2 26 2 68 0 95 -2 26 -3 4 -3 -48z"/>
<path d="M7823 3275 c0 -38 2 -53 4 -32 2 20 2 52 0 70 -2 17 -4 1 -4 -38z"/>
<path d="M11271 3324 c0 -11 3 -14 6 -6 3 7 2 16 -1 19 -3 4 -6 -2 -5 -13z"/>
<path d="M6117 3281 c-44 -126 -189 -260 -342 -317 -33 -13 -53 -23 -45 -23
58 -1 220 98 298 183 50 56 118 174 110 196 -2 6 -11 -12 -21 -39z"/>
<path d="M9492 3290 c0 -14 2 -19 5 -12 2 6 2 18 0 25 -3 6 -5 1 -5 -13z"/>
<path d="M9805 3270 c9 -55 69 -173 109 -213 35 -35 113 -83 122 -74 2 2 -14
12 -36 22 -74 33 -141 123 -182 245 -13 39 -17 45 -13 20z"/>
<path d="M11251 3259 c-40 -133 -122 -230 -221 -260 -20 -6 -21 -7 -5 -8 43
-2 125 58 165 121 40 62 83 163 77 181 -1 5 -9 -10 -16 -34z"/>
<path d="M3561 3274 c-2 -37 59 -142 105 -182 24 -22 74 -55 112 -75 68 -35
170 -72 178 -65 2 3 -22 13 -54 22 -91 29 -171 74 -230 129 -57 54 -77 86 -98
152 -7 24 -13 31 -13 19z"/>
<path d="M8862 3260 c0 -19 2 -27 5 -17 2 9 2 25 0 35 -3 9 -5 1 -5 -18z"/>
<path d="M10412 3265 c0 -16 2 -22 5 -12 2 9 2 23 0 30 -3 6 -5 -1 -5 -18z"/>
<path d="M7142 3255 c0 -16 2 -22 5 -12 2 9 2 23 0 30 -3 6 -5 -1 -5 -18z"/>
<path d="M5091 3263 c-2 -33 47 -131 91 -185 47 -56 128 -119 152 -118 6 1 -2
8 -19 17 -34 17 -126 104 -158 147 -11 16 -31 57 -43 90 -13 34 -23 56 -23 49z"/>
<path d="M9481 3244 c0 -11 3 -14 6 -6 3 7 2 16 -1 19 -3 4 -6 -2 -5 -13z"/>
<path d="M6391 3210 c-1 -32 41 -122 75 -164 32 -38 101 -86 123 -86 9 1 2 7
-15 14 -73 32 -145 123 -170 215 -9 31 -13 38 -13 21z"/>
<path d="M10401 3214 c0 -11 3 -14 6 -6 3 7 2 16 -1 19 -3 4 -6 -2 -5 -13z"/>
<path d="M7155 3195 c10 -50 55 -131 94 -168 35 -35 124 -77 159 -77 9 1 -10
10 -43 21 -101 35 -140 75 -192 198 -14 31 -22 43 -18 26z"/>
<path d="M8871 3204 c-2 -43 33 -118 74 -159 44 -45 126 -80 167 -72 21 4 21
4 -3 6 -106 5 -201 92 -228 208 -5 21 -9 29 -10 17z"/>
<path d="M9450 3162 c-42 -98 -117 -165 -202 -181 -35 -7 -38 -9 -13 -10 43
-1 107 31 153 77 37 37 97 144 90 162 -2 5 -14 -17 -28 -48z"/>
<path d="M7812 3170 c0 -14 2 -19 5 -12 2 6 2 18 0 25 -3 6 -5 1 -5 -13z"/>
<path d="M10381 3149 c-16 -54 -84 -126 -146 -155 -27 -13 -43 -24 -35 -24 30
0 121 62 150 101 29 40 56 106 48 115 -3 2 -10 -14 -17 -37z"/>
<path d="M12193 3117 c-15 -56 -67 -110 -120 -126 -37 -10 -37 -10 -4 -6 19 3
49 16 67 30 35 27 78 104 72 131 -2 10 -9 -3 -15 -29z"/>
<path d="M7787 3096 c-23 -56 -72 -102 -133 -126 -27 -10 -42 -19 -34 -19 26
-1 94 35 124 65 30 31 69 100 64 115 -2 5 -11 -11 -21 -35z"/>
<path d="M11834 3009 c33 -11 78 -22 100 -25 23 -2 -2 7 -54 21 -111 29 -130
31 -46 4z"/>
<path d="M10830 3000 c25 -8 87 -13 79 -6 -2 2 -26 6 -54 9 -34 4 -42 3 -25
-3z"/>
<path d="M13458 2993 c7 -3 16 -2 19 1 4 3 -2 6 -13 5 -11 0 -14 -3 -6 -6z"/>
<path d="M13848 2993 c7 -3 16 -2 19 1 4 3 -2 6 -13 5 -11 0 -14 -3 -6 -6z"/>
<path d="M10943 2983 c9 -2 25 -2 35 0 9 3 1 5 -18 5 -19 0 -27 -2 -17 -5z"/>
<path d="M13503 2983 c9 -2 23 -2 30 0 6 3 -1 5 -18 5 -16 0 -22 -2 -12 -5z"/>
<path d="M13798 2983 c6 -2 18 -2 25 0 6 3 1 5 -13 5 -14 0 -19 -2 -12 -5z"/>
<path d="M10058 2973 c7 -3 16 -2 19 1 4 3 -2 6 -13 5 -11 0 -14 -3 -6 -6z"/>
<path d="M13613 2973 c32 -2 81 -2 110 0 29 2 3 3 -58 3 -60 0 -84 -1 -52 -3z"/>
<path d="M6745 2960 l-40 -7 35 -1 c19 0 46 4 60 8 32 10 2 10 -55 0z"/>
<path d="M10113 2963 c15 -2 37 -2 50 0 12 2 0 4 -28 4 -27 0 -38 -2 -22 -4z"/>
<path d="M6623 2953 c9 -2 23 -2 30 0 6 3 -1 5 -18 5 -16 0 -22 -2 -12 -5z"/>
<path d="M3978 2943 c7 -3 16 -2 19 1 4 3 -2 6 -13 5 -11 0 -14 -3 -6 -6z"/>
<path d="M5388 2943 c7 -3 16 -2 19 1 4 3 -2 6 -13 5 -11 0 -14 -3 -6 -6z"/>
<path d="M7448 2943 c12 -2 30 -2 40 0 9 3 -1 5 -23 4 -22 0 -30 -2 -17 -4z"/>
<path d="M7553 2943 c9 -2 25 -2 35 0 9 3 1 5 -18 5 -19 0 -27 -2 -17 -5z"/>
<path d="M4018 2933 c6 -2 18 -2 25 0 6 3 1 5 -13 5 -14 0 -19 -2 -12 -5z"/>
<path d="M5433 2933 c9 -2 23 -2 30 0 6 3 -1 5 -18 5 -16 0 -22 -2 -12 -5z"/>
<path d="M5673 2933 c9 -2 23 -2 30 0 6 3 -1 5 -18 5 -16 0 -22 -2 -12 -5z"/>
<path d="M4085 2920 c30 -8 172 -13 164 -6 -2 2 -47 5 -99 8 -52 3 -81 2 -65
-2z"/>
<path d="M5523 2923 c26 -2 67 -2 90 0 23 2 2 3 -48 3 -49 0 -68 -1 -42 -3z"/>
</g>
</svg>
